Coordinates
version=1
nRows=17
nColumns=36
inDegrees=yes

Units are S.I. units (second, meters, Newtons, ...)
If the header above contains a line with 'inDegrees', this indicates whether rotational values are in degrees (yes) or radians (no).

endheader
time	pelvis_tilt	pelvis_list	pelvis_rotation	pelvis_tx	pelvis_ty	pelvis_tz	hip_flexion_r	hip_adduction_r	hip_rotation_r	knee_angle_r	knee_angle_r_beta	ankle_angle_r	subtalar_angle_r	mtp_angle_r	hip_flexion_l	hip_adduction_l	hip_rotation_l	knee_angle_l	knee_angle_l_beta	ankle_angle_l	subtalar_angle_l	mtp_angle_l	lumbar_extension	lumbar_bending	lumbar_rotation	arm_flex_r	arm_add_r	arm_rot_r	elbow_flex_r	pro_sup_r	arm_flex_l	arm_add_l	arm_rot_l	elbow_flex_l	pro_sup_l
      1.40000000	    -16.17194000	      3.09052982	     -4.73693040	     -0.40631359	      0.61470378	     -0.57438228	     86.04146573	      3.87862305	      5.28255500	     94.98784550	      1.65785065	     26.88463662	     -8.81294917	     -7.50014328	     83.85677569	    -12.58392480	     -2.08453495	     95.20246047	      1.66159639	     28.25751021	      2.04863543	     -7.50014328	    -42.66403807	     -2.70979718	      1.86770726	     29.88185846	    -28.22189568	      0.79392567	    104.67719883	    109.26136531	     14.89915526	    -23.90064870	      2.53147913	    120.76909724	    109.10172070
      1.41000000	    -16.17916781	      2.45896437	     -4.78409750	     -0.40294098	      0.60430173	     -0.57588884	     87.16112920	      3.74505967	      4.51208142	     96.99559978	      1.69289258	     27.37890957	     -8.68059978	     -7.50014183	     85.49038583	    -12.80014562	     -1.10761714	     97.82188448	      1.70731396	     28.78610958	      1.77466846	     -7.50014183	    -43.92262264	     -1.76091204	      2.05279255	     36.96759713	    -25.95373439	      3.41688384	    103.11852652	    109.22779795	     21.25649684	    -23.49965652	      5.87486979	    120.72951233	    109.27482542
      1.42000000	    -16.32484469	      2.03923017	     -4.91619377	     -0.39990702	      0.59423567	     -0.57698141	     88.35397245	      3.74574809	      4.01571150	     98.85901087	      1.72541524	     28.38660860	     -8.26854200	     -7.50013936	     87.01338460	    -13.05805736	     -0.41991626	    100.09487561	      1.74698514	     29.48638012	      1.75091282	     -7.50013936	    -44.83789412	     -1.04564183	      1.99923736	     43.99563712	    -23.46340247	      6.92204724	    101.83567652	    109.20160398	     27.48889562	    -23.14732238	      8.70761024	    121.25720593	    109.37664806
      1.43000000	    -16.60367572	      1.77999767	     -5.07805431	     -0.39721356	      0.58472794	     -0.57754673	     89.64447734	      3.81424181	      3.63252809	    100.63121493	      1.75634603	     29.04588145	     -8.03831985	     -7.50013797	     88.46372114	    -13.28688576	      0.12663855	    102.07334806	      1.78151600	     30.18020824	      1.52273053	     -7.50013797	    -45.56024094	     -0.59727738	      2.02710688	     50.23750258	    -20.51738492	      9.31180894	    101.42324973	    109.17969164	     33.98975427	    -23.07046292	     11.69711797	    122.15877004	    109.59985576
      1.44000000	    -16.88876678	      1.84016237	     -5.23756083	     -0.39473302	      0.57639890	     -0.57805064	     90.87701771	      3.77117833	      3.57533040	    102.20452389	      1.78380545	     29.70775446	     -7.67661132	     -7.50013659	     89.55677027	    -13.39542555	      0.30407289	    103.63559922	      1.80878243	     30.91314701	      1.37062425	     -7.50013659	    -46.10164585	     -0.50600697	      2.02914538	     56.11008316	    -17.80159264	     11.69542678	    101.17448691	    109.12919626	     40.86982232	    -22.84499997	     14.65556523	    122.77053045	    109.80872465
      1.45000000	    -17.18730359	      2.06073325	     -5.31900118	     -0.39211698	      0.56906685	     -0.57859988	     92.05832104	      3.59776254	      3.67544005	    103.65976135	      1.80920414	     30.30886863	     -7.20114548	     -7.50013525	     90.41968555	    -13.35143012	      0.30932630	    104.94938135	      1.83171225	     31.72248983	      1.22371624	     -7.50013525	    -46.48785355	     -0.60098143	      2.01382997	     61.49752824	    -15.21108034	     13.58258478	    101.26349068	    109.05861722	     47.83475401	    -22.48308733	     17.65528716	    123.08900075	    109.99798170
      1.46000000	    -17.28454880	      2.32856285	     -5.46224354	     -0.38923817	      0.56303446	     -0.57857853	     92.85335006	      3.66679403	      4.01594696	    104.98231222	      1.83228700	     31.49428479	     -5.99301093	     -7.50012997	     90.88986483	    -13.48785610	      0.18393187	    106.15043570	      1.85267461	     32.79431784	      1.52363470	     -7.50012997	    -46.92354652	     -1.05260647	      2.52396348	     66.17921742	    -13.31330074	     14.61996619	    102.22240981	    108.49593604	     55.23429165	    -21.53596022	     21.31422039	    122.49287306	    109.95065249
      1.47000000	    -17.33300238	      2.28709477	     -5.65612482	     -0.38622023	      0.55827598	     -0.57820281	     93.33826218	      3.92598926	      3.97442665	    105.99266370	      1.84992096	     31.89909336	     -6.05923209	     -7.50012824	     91.30686364	    -13.75454446	      0.41011015	    107.22532609	      1.87143498	     33.40968951	      1.42219171	     -7.50012824	    -47.37510712	     -1.20628118	      2.69289097	     71.25071206	    -10.92564443	     16.23966685	    102.37149441	    108.34064749	     61.96394711	    -21.19153634	     23.95871224	    122.50866972	    110.07186327
      1.48000000	    -17.29967798	      2.38272206	     -5.80183633	     -0.38300866	      0.55477114	     -0.57802063	     93.59135808	      4.11165215	      4.12088861	    106.85483594	      1.86496871	     32.40686211	     -6.06461757	     -7.50012624	     91.42214431	    -13.88262780	      0.47512118	    108.09243790	      1.88656894	     34.02927651	      1.48543532	     -7.50012624	    -47.77968942	     -1.45788906	      2.89554639	     76.15726241	     -9.07319942	     17.82364062	    102.71043886	    108.07552674	     68.66339073	    -20.71345167	     26.54909167	    122.16794550	    110.11094782
      1.49000000	    -17.32066744	      2.51222241	     -5.82844289	     -0.37970239	      0.55229725	     -0.57814371	     93.72477115	      4.19540162	      4.37576723	    107.53972786	      1.87692233	     32.89979428	     -6.02202471	     -7.50012462	     91.45934619	    -13.81537783	      0.52113995	    108.74457742	      1.89795092	     34.55004399	      1.53023225	     -7.50012462	    -47.99330146	     -1.61136019	      2.96806932	     81.07929523	     -7.54192797	     19.54921842	    102.91048615	    107.79352415	     75.04889418	    -20.28048579	     28.72791450	    121.75804224	    110.10320574
      1.50000000	    -17.29728244	      2.65294571	     -5.86604915	     -0.37623966	      0.55103383	     -0.57796541	     93.64894567	      4.33579043	      4.65648282	    108.06893017	      1.88615865	     33.42657178	     -5.95384494	     -7.50012282	     91.27311238	    -13.81881215	      0.52295866	    109.20115396	      1.90591968	     35.06740104	      1.72426110	     -7.50012282	    -48.05496479	     -1.81319053	      2.89879143	     85.86304541	     -5.84597382	     20.93014064	    102.64325623	    107.36505080	     81.19277218	    -20.02598498	     30.71859443	    121.20590224	    110.01752212
      1.51000000	    -17.35470600	      2.85996860	     -5.86153479	     -0.37274107	      0.55068161	     -0.57757589	     93.53145300	      4.46789230	      5.02801344	    108.45209689	      1.89284617	     33.96655321	     -5.81895688	     -7.50011988	     90.99432215	    -13.88123129	      0.34451444	    109.43465495	      1.90999504	     35.68949151	      2.14595644	     -7.50011988	    -47.82426512	     -2.05583951	      2.44648328	     90.34975016	     -3.46706805	     21.44266514	    101.73355816	    106.63561708	     87.17460892	    -20.19146513	     32.60605380	    120.71808053	    109.77474850
      1.52000000	    -17.65841857	      2.95813755	     -5.74632741	     -0.36926502	      0.55068489	     -0.57779146	     93.59155645	      4.38839463	      5.15445097	    108.70404764	      1.89724354	     34.26623313	     -5.80491888	     -7.50011825	     90.94123638	    -13.67444781	      0.33269591	    109.52551019	      1.91158077	     36.03294225	      2.19314288	     -7.50011825	    -47.08603902	     -2.03803113	      1.96150298	     94.65916734	     -1.10558281	     21.62665503	    100.35766204	    106.29863401	     92.48613560	    -20.22903725	     34.07961654	    119.96040256	    109.61202230
      1.53000000	    -18.03539082	      3.23678967	     -5.54338886	     -0.36565343	      0.55149994	     -0.57826005	     93.62191119	      4.21897885	      5.54810501	    108.84415954	      1.89968896	     34.64987154	     -5.74535935	     -7.50011585	     90.75961383	    -13.39406972	     -0.04768254	    109.39800990	      1.90935547	     36.38713586	      2.17128182	     -7.50011585	    -46.18696934	     -2.06749907	      1.12515803	     98.72388260	      0.96248879	     21.85135842	     99.12061628	    106.06209258	     97.68187232	    -20.58082849	     35.50404349	    119.46716395	    109.30429364
      1.54000000	    -18.39191392	      3.30279498	     -5.26696356	     -0.36180477	      0.55347089	     -0.57884212	     93.40976032	      3.94057808	      5.66036157	    108.76926566	      1.89838181	     34.96487466	     -5.76590743	     -7.50011408	     90.50018293	    -13.07270882	     -0.23241659	    109.13771298	      1.90481243	     36.60134299	      2.16342024	     -7.50011408	    -45.23351155	     -1.86125306	      0.67140748	    102.70659182	      2.16723999	     22.39979368	     98.11580890	    106.02511898	    102.52619804	    -20.58610971	     36.71340826	    118.62159585	    108.99164945
      1.55000000	    -18.74419296	      3.26706244	     -5.03108947	     -0.35771186	      0.55660979	     -0.57923414	     92.99442811	      3.75985916	      5.70449939	    108.47828624	      1.89330326	     35.23662065	     -5.82968398	     -7.50011270	     90.12525755	    -12.89952473	     -0.39156976	    108.72585414	      1.89762414	     36.78200637	      2.17655796	     -7.50011270	    -44.24780306	     -1.60534047	      0.44805786	    106.48182251	      2.89810046	     22.84684426	     97.47359988	    106.06327152	    107.09961321	    -20.37890199	     37.77499941	    117.67303621	    108.70844456
      1.56000000	    -18.96018954	      3.19947504	     -4.87942643	     -0.35341700	      0.56119774	     -0.57941911	     92.23651389	      3.67720294	      5.66099394	    107.94267609	      1.88395510	     35.50253815	     -5.95454677	     -7.50011105	     89.42461552	    -12.81116695	     -0.62666755	    108.12001921	      1.88705032	     36.97137372	      2.15941833	     -7.50011105	    -43.39014165	     -1.42764634	      0.30453804	    110.20920254	      3.09874863	     23.70115569	     96.90433519	    106.15459280	    111.72341550	    -20.19083798	     39.28620574	    116.49853739	    108.39688661
